<svg xmlns="http://www.w3.org/2000/svg" viewBox="0 0 21.55 800.95">
  <defs>
    <style>.cls-1{fill:none;stroke:#2b3e4a;stroke-miterlimit:10;}</style>
  </defs>

  <path class="cls-1" d="M5.18,277.57A10.43,10.43,0,0,0,16.32,277c3-2.27,4.73-6.33,4.73-10.87" />
  <path class="cls-1" d="M4.67,267.35a8,8,0,0,0-1.3,7c.85,2.78,3.27,5.11,6.65,6.41,5,1.94,11,7.8,11,24.71" />
  <path class="cls-1" d="M12.05,269.1a3.64,3.64,0,0,0-3-1.74A4.09,4.09,0,0,0,5.61,269a5.2,5.2,0,0,0-.58,5" />
  <path class="cls-1" d="M10.61,240a6.83,6.83,0,0,0,7.32-.38,8.93,8.93,0,0,0,3.12-7.15" />
  <path class="cls-1" d="M21.05,258.38c0-8.61-2.58-14.46-7.26-16.26a7,7,0,0,1-4.38-4.22,5.24,5.24,0,0,1,.86-4.63" />
  <path class="cls-1" d="M2.94,196.89c4.05,2.55,9.69,1.66,12.71-.65,3.38-2.59,5.4-7.23,5.4-12.41" />
  <path class="cls-1" d="M21.05,226.45c0-14.93-4.47-22.74-12.59-25.86-3.85-1.48-6.62-4.15-7.58-7.32a9.08,9.08,0,0,1,1.48-8" />
  <line class="cls-1" x1="21.05" y1="305.51" x2="21.05" y2="315.87" />
  <line class="cls-1" x1="21.05" y1="258.38" x2="21.05" y2="266.12" />
  <line class="cls-1" x1="21.05" y1="226.45" x2="21.05" y2="232.46" />
  <polyline class="cls-1" points="21.05 183.83 21.05 175.33 20.93 0" />
  <path class="cls-1" d="M10.61,611.55a6.85,6.85,0,0,0,7.32-.38A9,9,0,0,0,21.05,604" />
  <path class="cls-1" d="M21.05,629.94c0-8.61-2.58-14.46-7.26-16.26a7,7,0,0,1-4.38-4.22,5.26,5.26,0,0,1,.86-4.64" />
  <path class="cls-1" d="M2.94,568.45c4.05,2.55,9.69,1.66,12.71-.65,3.38-2.59,5.4-7.23,5.4-12.41" />
  <path class="cls-1" d="M21.05,598c0-14.93-4.47-22.73-12.59-25.85-3.85-1.49-6.62-4.15-7.58-7.32a9.1,9.1,0,0,1,1.48-8" />
  <line class="cls-1" x1="21.05" y1="598" x2="21.05" y2="604.01" />
  <polyline class="cls-1" points="21.05 555.39 21.05 551.85 21.05 315.87" />
  <path class="cls-1" d="M20.93,801v-171" />

</svg>