<?xml version="1.0" encoding="utf-8"?>
<!-- Generator: Adobe Illustrator 25.0.0, SVG Export Plug-In . SVG Version: 6.00 Build 0)  -->
<svg version="1.1" id="레이어_1" xmlns="http://www.w3.org/2000/svg" xmlns:xlink="http://www.w3.org/1999/xlink" x="0px"
	 y="0px" viewBox="0 0 416.5 326.2" style="enable-background:new 0 0 416.5 326.2;" xml:space="preserve">
<g>
	<path d="M351.8,246.8c-36.1,19.6-87.1,30.5-143.6,30.5c-56.5,0-107.5-10.8-143.6-30.5c-37-20.1-56.5-48-56.5-80.7
		c0-32.7,19.5-60.6,56.5-80.7c36.1-19.6,87.1-30.5,143.6-30.5c56.5,0,107.5,10.8,143.6,30.5c37,20.1,56.5,48,56.5,80.7
		C408.4,198.8,388.8,226.7,351.8,246.8 M355.7,78.2C318.4,58,266,46.8,208.2,46.8C150.4,46.8,98.1,58,60.8,78.2
		C21,99.8,0,130.2,0,166.1c0,35.9,21,66.2,60.8,87.8c37.3,20.3,89.7,31.5,147.5,31.5s110.2-11.2,147.5-31.5
		c39.8-21.6,60.8-52,60.8-87.8S395.4,99.8,355.7,78.2"/>
	<g>
		<path d="M185.1,179.1c-0.3,0-0.5,0-0.8,0.1c1.2-6,2.1-15.2,2.1-26c0-9.9-1.3-16.6-3.6-22.9c3.1,0.2,6.5,0.3,10,0.3h0.2
			c4.1,0,8.9-0.3,14-0.9c1.9,5.3,3.6,13.8,3.6,22.5c0,11.3-1.2,21.6-3.2,28.2C200.2,179.1,193.2,178.6,185.1,179.1 M249.8,139.1
			c-1.4,0.3-2.7,0.7-3.9,1.3c0.8-12.6,2-22.1,3.1-26.1l-7.2-1.9c-2.2,8.5-5.3,37.8-3.5,70.9c-6.2,2.6-11.9,2.5-20.8-0.2
			c-1-0.3-1.9-0.6-2.8-0.8c2.1-7.4,3.4-18.1,3.4-30c0-8.3-1.4-17-3.5-23.6c6.5-1.1,12.9-2.8,18-5l-3-6.9c-9.7,4.2-25.8,6.3-36.7,6.3
			c-12.6,0-22.8-1.3-30.3-3.7l-2.3,7.1c4.2,1.4,8.9,2.4,14.3,3c2.5,5.8,4.5,12.2,4.5,23.6c0,11.9-1.2,22.4-2.6,27.4
			c-7.1,1.7-14.8,4.6-18.1,6.9l4.2,6.2c3.5-2.4,16.1-6.7,23.1-7.1c11-0.6,19.6,0.5,29.7,3.6c9.5,3,16.5,3.2,23.5,0.9
			c0.6,7.4,1.4,14.9,2.6,22.3l7.4-1.1c-3.4-21.6-3.9-44.2-3.3-62.4c1-1.5,3.3-2.8,5.9-3.4c2.2-0.5,6.6-0.9,11,2l4.1-6.3
			C261.5,138.9,255.6,137.9,249.8,139.1"/>
		<path d="M70,201.3c-5.7,1-9.8-0.2-11.8-1.9c-0.7-0.5-1.3-1.6-1.2-2.7c0.1-1.1,0.9-2.5,2.3-3.1c1-0.5,2.5-0.8,4-0.8
			c2.2,0,4.7,0.7,7.6,2.5c2.2,1.4,5.5,2.8,7.7,4C76.2,200,72.7,200.8,70,201.3 M96.1,199.7c7.8-5,12.3-11.7,11.7-21.9
			c-0.2-4.5-2.2-8.2-2.4-8.6l-6.6,3.6c0,0,1.2,2.6,1.4,5.4c0.4,7.2-2.8,13.5-13.4,18.1c-4-1.8-8.7-4.3-13-7.1
			c-6.1-4-12.9-4.8-18.2-2c-3.8,1.9-6.1,5.3-6.3,9.2c-0.2,3.2,1.2,6.2,3.9,8.5c4,3.4,10.5,4.5,17.3,3.2c6-1.1,10.9-2.5,15.5-4
			c9.5,3.9,19.6,5.8,29.4,5.9c13.2,0,25.9-3.6,36.7-10.4l-4-6.3C141.8,197.3,122,207.7,96.1,199.7"/>
		<path d="M102.1,144.5c2.7,7.5,7.6,14,10.9,17c8.6,7.9,17.8,11.8,32.1,13.6l0.9-7.4c-12.7-1.6-20.5-4.8-27.9-11.6
			c-1.7-1.6-5.2-5.8-7.6-10.9c-2-4.1-3.9-10-1.9-15l0,0c6.3-11.4,14.7-10.3,18.4-9.1l2.3-7.1c-12.8-4.2-24.5,3.2-30.3,19.3
			c-7.3,20.2-20.5,31.4-41.5,35.1l1.3,7.4C79,172,93.3,161.8,102.1,144.5"/>
		<polygon points="344.6,114.7 344.6,139.6 322.9,139.6 322.9,147.1 344.6,147.1 344.6,173.7 352.1,173.7 352.1,114.7 		"/>
		<path d="M295.2,151.7c5.8,9.8,17.7,18.4,30.2,20.5l1.3-7.4c-13.3-2.3-26.8-14.2-27.5-24.1c1.9-7.6,2.6-16.7,1.3-27.7L293,114
			c2,16.6-0.8,30.3-8.2,40.5c-7.1,9.8-16.8,13.9-21.9,15.5l2.2,7.1C271.4,175.2,286.7,168.9,295.2,151.7"/>
		<path d="M282.1,187.1h62.5v19.6c-2.9,1.1-8.8,2.9-16.3,2.9c-7,0-11.7-0.8-21.7-3.6c-7.5-2.1-18.7-2.6-24.5-2.7L282.1,187.1
			L282.1,187.1z M274.6,210.7l3.8,0c0.2,0,17-0.1,26.2,2.5c9.5,2.7,15.2,3.9,23.7,3.9c12.8,0,21.4-4.4,21.8-4.6l2-1v-31.8h-77.5
			V210.7z"/>
	</g>
</g>
<g>
	<path d="M63,285.1c-1.3,4.4,2.8,8.3,12.6,11.9c6.2,2.2,9.1,3.6,8.5,6c-0.2,0.7-0.5,1.2-1.2,1.5c-1.5,0.9-4.3,0.8-8.5-0.4
		c-5.7-1.5-9.7-4.2-12.2-8c-1.7,1.1-2.7,1.6-4.4,2.7c3.2,4.6,8.5,8,15.2,9.8c5.8,1.6,10.8,1.4,13.8-0.4c1.7-1,2.8-2.5,3.2-4.4
		c1.3-5.5-4.1-8.7-12.7-11.7c-5.4-1.9-9.3-3.3-8.6-5.8c0.8-2.8,6.1-1.8,9.2-0.9c4.6,1.3,7.9,3.2,10.2,5.9c1.6-1.2,2.5-1.9,4-3
		c-2.8-3.3-7.2-5.8-13-7.4C70.6,278.6,64.5,280.1,63,285.1"/>
	<path d="M124.7,305.3L124.7,305.3c-0.4,2.5-1.6,4.5-3.4,5.7c-1.6,1.1-3.7,1.7-6.2,1.7c-1.1,0-2.3-0.1-3.5-0.4c-4-0.8-7-2.5-8.6-4.8
		c-1.2-1.9-1.6-4.1-1.1-6.6c1.2-5.6,6.1-8.2,13.1-6.8C122,295.5,125.7,299.7,124.7,305.3 M115.9,289.4c-1.9-0.4-3.6-0.5-5.3-0.5
		c-7.8,0-13.1,3.8-14.7,10.8c-0.8,3.7-0.3,7.2,1.6,10c2.5,3.8,7,6.3,13.1,7.5c6.1,1.2,11.3,0.4,14.9-2.1c2.8-2,4.6-5,5.1-8.7
		C132,297.8,126.5,291.4,115.9,289.4"/>
	<path d="M161.2,308.6c-0.8,0.7-2,1-3.7,1c-0.5,0-1,0-1.6-0.1c-4.8-0.5-7.2-0.8-12.2-1.4l-0.2,0l0-0.2c0.3-2.4,0.5-3.9,0.8-5.8
		l0.3-2.4l0.2,0c4.9,0.6,7.2,0.9,12,1.4c2.6,0.3,6.1,1.1,5.8,4.9C162.4,307.1,162,308,161.2,308.6 M157.8,296.4
		c-7.4-0.8-11-1.2-18.4-2.2c-0.8,6-1.5,10.3-2.1,14.9c-0.5,3.4-1,7-1.6,11.4c2.4,0.3,3.7,0.5,6,0.8c0.4-3.3,0.7-5,1.1-8.4l0-0.2
		l0.2,0c5.3,0.7,7.8,1,12.8,1.5c4.2,0.4,7.6-0.3,9.8-2.2c1.6-1.4,2.6-3.3,2.8-5.6C168.9,300.9,164.9,297.2,157.8,296.4"/>
	<path d="M192.4,315.1l-0.4,0c-4.7-0.2-7-0.2-11.7-0.5l-0.4,0l0.2-0.3c2.6-4.2,3.8-6.3,6.3-10.7l0.2-0.4l0.2,0.4
		c2.1,4.5,3.2,6.7,5.4,11.2L192.4,315.1z M183.6,298.4c-6.4,10.7-9.7,15.8-16.3,25.6c2.4,0.2,3.8,0.3,6.5,0.5c1.3-2.1,2-3.2,3.3-5.4
		l0.1-0.1l0.2,0c6.9,0.4,10.3,0.6,17.2,0.8h0.2l0.1,0.1c1.1,2.3,1.7,3.4,2.9,5.7c2.6,0,4,0.1,6.5,0.1c-5.9-10.7-8.7-16-14-26.9
		C187.5,298.6,186.2,298.5,183.6,298.4"/>
	<path d="M224,309.2c-5.7-0.3-9.8-0.4-9.8-3c0-2.9,5.3-3.5,8.5-3.5c0.2,0,0.5,0,0.7,0c4.4,0,7.8,0.9,10.7,2.7c1.2-1.6,1.8-2.5,3-4.1
		c-3.6-2.3-8.6-3.5-14.5-3.3c-8.9,0.3-14.3,3.5-14.3,8.7c0,4.6,5,7.2,15.3,7.7c6.6,0.3,9.7,0.8,9.8,3.3c0,0.7-0.2,1.3-0.7,1.8
		c-1.2,1.3-3.8,2-8.2,2.1c-0.3,0-0.7,0-1,0c-5.3,0-9.5-1.4-12.9-4.2c-1.3,1.5-2.1,2.3-3.4,3.8c4.2,3.3,9.7,5,16.1,5
		c0.4,0,0.8,0,1.2,0c6-0.2,10.6-1.7,13-4.4c1.3-1.5,2-3.2,1.8-5.1C239.1,311,233,309.6,224,309.2"/>
	<path d="M252.4,319l-0.2,0l0-0.2l-0.5-6.2l0.2,0c7.3-0.6,11-1,18.3-1.9l0-0.1c-0.2-1.8-0.3-2.8-0.6-4.6c-7.2,0.9-10.8,1.3-18.1,1.9
		l-0.2,0l0-0.4c-0.2-2.1-0.3-3.2-0.5-5.4l0-0.2l0.2,0c8.7-0.8,13-1.2,21.4-2.3l-0.6-4.7c-10.8,1.4-16.2,2-27.2,2.8l0.3,3.7
		c0.6,8.3,1,13.6,1.7,22.8c11.7-0.8,17.5-1.5,29.1-3l-0.6-4.7C266,317.7,261.6,318.2,252.4,319"/>
	<path d="M306.2,309.1c-1.6,2.4-4.6,4-8.6,4.7c-1.2,0.2-2.3,0.3-3.3,0.3c-2.5,0-4.7-0.6-6.4-1.8c-1.8-1.3-3-3.3-3.4-5.8
		c-0.9-5.7,2.8-9.8,9.8-11c7-1.2,11.9,1.4,13,7C307.8,305,307.5,307.2,306.2,309.1 M298.4,290.2c-1.5,0-3.2,0.1-4.9,0.5
		c-10.6,1.9-16.2,8.1-15,16.7c0.5,3.8,2.3,6.8,5,8.8c3.6,2.6,8.8,3.4,14.9,2.4c6.1-1.1,10.7-3.6,13.2-7.3c1.9-2.8,2.5-6.3,1.7-10
		C311.8,294.2,306.4,290.2,298.4,290.2"/>
	<path d="M346.2,279.3c-2.8,6.8-4.3,10.1-7.5,16.9l-0.1,0.3l-0.2-0.2c-6.1-4.3-9-6.4-14.9-10.9c-2.5,0.6-3.8,0.9-6.3,1.5l5.9,25.9
		c2.3-0.5,3.5-0.8,5.8-1.3l-4.5-18.8l0.5,0.4c6.2,4.6,9.3,6.7,15.5,11l0.1,0c3.3-6.8,4.9-10.2,8-17.2l0.3-0.6l0.2,0.6
		c2.1,7.2,3.2,10.8,5.2,17.8c2.3-0.7,3.6-1.1,5.9-1.8l-1.2-4c-2.3-7.7-3.9-12.7-6.6-21.4C349.9,278.2,348.6,278.6,346.2,279.3"/>
</g>
<g>
	<path d="M92.9,23c0.4,0.7,0.7,1.4,1,2.2c0.2,0.9,0.3,1.6,0.3,2.4c2.8-0.8,4.2-1.1,7-1.9c-0.5-1.9-0.7-2.8-1.2-4.7
		C97,21.9,95.6,22.2,92.9,23 M105.2,41c-0.6-2.3-3.8-2.9-8.9-1.5c-5,1.4-7.6,3.6-6.9,5.9c0.7,2.4,4,2.7,8.9,1.4
		C103.3,45.4,105.8,43.4,105.2,41 M109.2,40c1.1,4.3-2.8,7.9-10,9.9s-12.3,1-13.7-3.3c-1.3-4.2,2.5-8.1,9.9-10.2
		C102.8,34.4,108.1,35.8,109.2,40 M85.8,32.9c3.1-0.9,4.9-3.6,4-6.6c-0.9-3-3.8-4.3-7-3.4c-3.3,1-5,3.7-4.1,6.7
		C79.7,32.6,82.6,33.9,85.8,32.9 M93.1,31.4c-1.2,2.2-3.4,4-6.3,4.9c-5.3,1.6-10.4-0.5-12-5.3c-1.6-4.8,1.5-9.6,7-11.3
		c3-0.9,6-0.6,8.2,0.6c3.6-1,5.4-1.5,9-2.4c-0.5-1.9-0.7-2.9-1.2-4.8c1.7-0.4,2.6-0.7,4.3-1.1c2,8.2,3,12.3,5.1,20.5
		c-1.6,0.4-2.5,0.6-4.1,1c-0.5-1.8-0.7-2.7-1.2-4.6C98.4,29.9,96.6,30.4,93.1,31.4"/>
	<path d="M147.9,21.8c-2.1,0.3-3.2,0.5-5.2,0.8c1.1,6.9,1.6,10.4,2.7,17.3c-1.6,0.2-2.4,0.4-4,0.6c-2.4-14.2-3.5-21.2-5.9-35.4
		c1.8-0.3,2.6-0.4,4.4-0.7c0.9,5.9,1.4,8.9,2.3,14.8c2.1-0.3,3.2-0.5,5.3-0.8C147.6,19.8,147.7,20.4,147.9,21.8 M125.4,26.8
		c2.9-0.6,4.5-2.3,4.1-4.4c-0.4-2.2-2.6-3.1-5.5-2.6c-2.9,0.6-4.6,2.3-4.2,4.5C120.3,26.4,122.5,27.3,125.4,26.8 M134.1,12.9
		c-8.9,1.6-13.4,2.4-22.2,4.4c-0.3-1.3-0.4-1.9-0.7-3.2c3.6-0.8,5.4-1.2,9.1-2c-0.3-1.6-0.5-2.4-0.8-4c1.7-0.4,2.6-0.5,4.3-0.9
		c0.3,1.6,0.5,2.4,0.8,4c3.6-0.7,5.4-1,9-1.7C133.8,11,133.9,11.6,134.1,12.9 M128.6,32.6c3-0.8,6-1.5,8.9-2.4
		c0.3,1.2,0.5,1.8,0.8,2.9c-7.4,2.6-15.6,4.4-21.7,5.8c-0.5-1.3-0.8-1.9-1.3-3.2c2.7-0.6,5.9-1.3,9.2-2.1c-0.3-1.4-0.4-2.1-0.7-3.4
		c-4.1,0.2-7.3-1.6-8-4.9c-0.9-3.9,2.2-7.4,7.5-8.4c5.3-1.1,9.4,0.9,10.1,4.9c0.6,3.4-1.6,6.2-5.5,7.6
		C128.2,30.6,128.4,31.3,128.6,32.6"/>
	<path d="M180.8,9.1c0.1,1.7,0.2,2.6,0.3,4.3c2.1-0.1,3.1-0.2,5.2-0.3c0.1,1.4,0.1,2,0.2,3.4c-2.1,0.1-3.1,0.2-5.1,0.3
		c0.2,2.4,0.2,3.7,0.4,6.1c-1.7,0.1-2.5,0.2-4.2,0.3c-0.7-9.1-1-13.7-1.7-22.9c1.8-0.1,2.6-0.2,4.4-0.3c0.2,2.3,0.2,3.4,0.4,5.7
		c2.1-0.1,3.2-0.2,5.3-0.3c0.1,1.4,0.1,2,0.2,3.4C183.9,8.9,182.9,9,180.8,9.1 M178.4,29.7c-0.2-2.1-3.1-2.9-8.1-2.5
		c-5,0.4-7.7,1.9-7.5,3.9c0.2,2.1,3.2,2.8,8.1,2.4C175.8,33.1,178.6,31.8,178.4,29.7 M163.4,19.8c2.9-0.3,4.8-1.8,4.6-3.8
		c-0.2-2.1-2.3-3.2-5.3-2.9c-3,0.3-4.8,1.8-4.6,3.9C158.4,19,160.5,20.1,163.4,19.8 M182.5,29.5c0.2,4-4.1,6.5-11.3,7.2
		c-7.2,0.7-12-1.1-12.4-5c-0.5-3.9,3.8-6.8,11.3-7.5C177.5,23.5,182.2,25.5,182.5,29.5 M163.8,22.8c-5.3,0.6-9.2-1.4-9.7-5.3
		c-0.5-3.9,2.9-6.8,8.3-7.4c5.5-0.6,9.4,1.6,9.7,5.5C172.4,19.4,169.1,22.2,163.8,22.8 M173.5,7.5c-9,0.7-13.4,1.2-22.3,2.4
		c-0.2-1.3-0.3-1.9-0.4-3.2c3.6-0.5,5.4-0.7,9.1-1.1c-0.2-1.6-0.3-2.4-0.4-4c1.8-0.2,2.6-0.3,4.4-0.5c0.2,1.6,0.2,2.4,0.4,4
		c3.6-0.4,5.5-0.5,9.1-0.8C173.3,5.6,173.4,6.2,173.5,7.5"/>
	<path d="M198.6,8.4c0.1,2.9,3.6,4.5,9,4.5c5.3,0,8.9-1.7,9-4.6c0-2.9-3.5-4.7-9-4.7C202.1,3.8,198.5,5.6,198.6,8.4 M194.1,8.6
		c-0.2-4.8,5.3-8.1,13.4-8.1c8.1,0,13.5,3.3,13.4,8.1c-0.1,4.8-5.6,7.7-13.4,7.8C199.7,16.3,194.3,13.4,194.1,8.6 M224.3,23
		c-3.3-0.1-5-0.2-8.3-0.2c-0.1,4.9-0.1,7.4-0.2,12.3c-1.7,0-2.5,0-4.1-0.1c0-4.9,0.1-7.4,0.1-12.3c-3.3,0-5,0-8.3,0
		c0.1,4.9,0.1,7.4,0.2,12.3c-1.7,0-2.5,0-4.1,0.1c-0.1-4.9-0.2-7.4-0.3-12.3c-3.2,0.1-4.9,0.1-8.1,0.3c-0.1-1.4-0.1-2-0.1-3.4
		c13.4-0.6,20.1-0.6,33.4-0.1C224.3,21,224.3,21.7,224.3,23"/>
	<path d="M252.3,5.5c-3.5-0.4-5.3-0.5-8.8-0.8c-0.2,2.3-0.3,3.5-0.5,5.8c3.5,0.3,5.2,0.4,8.7,0.8C252,9,252.1,7.8,252.3,5.5
		 M237.2,32.6c8.5,0.6,12.8,1,21.3,2.1c-0.2,1.2-0.2,1.8-0.4,3c-10-1.2-15.1-1.7-25.2-2.3c0.2-3.4,0.3-5.1,0.5-8.6
		c8.3,0.5,12.4,0.9,20.6,1.8c0.1-1,0.2-1.5,0.3-2.5c-8.3-0.9-12.5-1.3-20.8-1.8c0.1-1.2,0.1-1.8,0.2-3c10,0.6,15.1,1.1,25.1,2.3
		c-0.4,3.3-0.6,5-1,8.3c-8.2-1-12.2-1.4-20.4-2C237.3,31,237.3,31.5,237.2,32.6 M239.2,4.4c-2.2-0.1-3.2-0.2-5.4-0.4
		c0.1-1.2,0.1-1.9,0.2-3.1c11.4,0.7,17.1,1.2,28.5,2.6c-0.2,1.2-0.2,1.9-0.4,3.1c-2.1-0.3-3.2-0.4-5.3-0.6c-0.3,2.3-0.4,3.5-0.6,5.8
		c2,0.2,3,0.4,5.1,0.6c-0.2,1.2-0.2,1.8-0.4,3.1c-10.9-1.3-16.3-1.8-27.3-2.5c0.1-1.2,0.1-1.9,0.2-3.1c2,0.1,3.1,0.2,5.1,0.3
		C238.9,7.9,239,6.7,239.2,4.4 M263.7,18.3c-0.2,1.3-0.3,1.9-0.4,3.2c-13.3-1.8-20-2.4-33.4-3c0.1-1.3,0.1-2,0.2-3.3
		C243.6,15.9,250.3,16.6,263.7,18.3"/>
	<path d="M291,28.6c-1.5-0.3-2.3-0.5-3.8-0.8c1.5-8.1,2.3-12.1,3.8-20.2c1.6,0.3,2.4,0.5,4,0.8c-0.7,3.3-1,4.9-1.7,8.2
		c1.7,0.3,2.5,0.5,4.1,0.9c0.7-3.5,1.1-5.3,1.9-8.9c1.7,0.4,2.5,0.5,4.1,0.9c-2.1,9.5-3.1,14.2-5.2,23.7c-1.6-0.3-2.3-0.5-3.9-0.8
		c1-4.6,1.5-7,2.4-11.6c-1.6-0.3-2.5-0.5-4.1-0.8C292.1,23.4,291.7,25.1,291,28.6 M288.4,30.3c-0.8,4.2,3.3,8.9,9.9,11.4
		c-0.9,1.1-1.3,1.6-2.2,2.8c-5.2-2.1-9.1-5.5-10.6-9.4c-2.9,3.1-7.8,4.9-13.4,4.9c-0.4-1.4-0.6-2-1.1-3.4c7,0.1,12.6-2.8,13.3-6.9
		c0.1-0.3,0.1-0.5,0.2-0.8c1.6,0.3,2.5,0.5,4.1,0.8C288.5,29.9,288.4,30,288.4,30.3 M285.9,26.1c-4.5,0-8.2-0.4-13.6-1.3
		c-1-0.1-1.5-0.2-2.5-0.4c0.6-4.3,0.9-6.4,1.6-10.7c4,0.6,6,0.9,9.9,1.6c0.3-1.6,0.4-2.4,0.7-4.1c-4-0.7-6.1-1-10.1-1.6
		c0.2-1.3,0.3-1.9,0.5-3.2c5.8,0.9,8.7,1.3,14.4,2.4c-0.7,4.1-1.1,6.1-1.9,10.2c-3.9-0.7-5.9-1.1-9.9-1.7c-0.3,1.8-0.4,2.6-0.7,4.4
		c4.4,0.7,7.8,1,11.7,1C286,24.2,286,24.8,285.9,26.1"/>
	<path d="M320.8,25c3.4,0.9,5.1,1.4,8.4,2.4c0.7-2.5,1.1-3.8,1.8-6.3c-3.4-1-5.1-1.5-8.6-2.4C321.8,21.2,321.5,22.4,320.8,25
		 M311.2,44.4c6.5,1.7,9.7,2.6,16.1,4.5c0.6-1.9,0.9-2.9,1.4-4.8c-6.5-2-9.7-2.9-16.3-4.6C312,41.5,311.7,42.5,311.2,44.4
		 M309.2,35.4c9.8,2.4,14.7,3.8,24.4,6.9c-1.4,4.4-2.1,6.6-3.4,10.9c-9.4-3-14.2-4.3-23.7-6.7C307.6,42.1,308.1,39.9,309.2,35.4
		 M339.4,37.7c-0.4,1.2-0.6,1.9-1,3.1c-12.9-4.2-19.3-6-32.4-9.1c0.3-1.3,0.5-1.9,0.8-3.2c5.7,1.4,8.6,2.1,14.3,3.7
		c0.4-1.4,0.6-2,0.9-3.4c-4.5-1.2-6.7-1.8-11.2-2.9c0.3-1.3,0.5-1.9,0.8-3.2c2,0.5,3,0.8,5,1.3c0.7-2.6,1-3.8,1.7-6.4
		c-2.1-0.6-3.2-0.8-5.3-1.3c0.3-1.3,0.5-1.9,0.8-3.2c11.2,2.8,16.7,4.3,27.8,7.8c-0.4,1.3-0.6,1.9-1,3.1c-2.1-0.7-3.1-1-5.2-1.6
		c-0.8,2.5-1.2,3.8-1.9,6.3c2,0.6,3,0.9,4.9,1.5c-0.4,1.3-0.6,1.9-1,3.1c-4.4-1.4-6.6-2.1-11.1-3.3c-0.4,1.4-0.6,2-1,3.4
		C330.9,34.9,333.8,35.8,339.4,37.7"/>
</g>
</svg>
