<?xml version="1.0" encoding="utf-8"?>
<!-- Generator: Adobe Illustrator 24.2.3, SVG Export Plug-In . SVG Version: 6.00 Build 0)  -->
<svg version="1.1" id="레이어_1" xmlns="http://www.w3.org/2000/svg" xmlns:xlink="http://www.w3.org/1999/xlink" x="0px"
	 y="0px" viewBox="0 0 1366 768" style="enable-background:new 0 0 1366 768;" xml:space="preserve">
<g>
	<path d="M537.78,505.96c-1.35,4.43,2.76,8.31,12.57,11.85c6.23,2.25,9.09,3.57,8.49,5.99c-0.17,0.67-0.55,1.18-1.15,1.54
		c-1.49,0.88-4.26,0.76-8.48-0.38c-5.68-1.53-9.68-4.15-12.22-8.03c-1.72,1.06-2.68,1.64-4.41,2.68c3.25,4.62,8.52,8.02,15.24,9.84
		c5.84,1.57,10.75,1.43,13.83-0.4c1.7-1.01,2.79-2.48,3.24-4.36c1.31-5.53-4.12-8.68-12.68-11.7c-5.4-1.91-9.3-3.3-8.59-5.76
		c0.81-2.8,6.14-1.75,9.24-0.87c4.62,1.3,7.86,3.18,10.18,5.91c1.59-1.19,2.46-1.85,4.02-3.04c-2.77-3.29-7.25-5.84-12.97-7.4
		C545.37,499.44,539.28,501,537.78,505.96"/>
	<path d="M599.5,526.23L599.5,526.23c-0.42,2.52-1.58,4.45-3.44,5.74c-1.63,1.13-3.73,1.71-6.18,1.71c-1.11,0-2.3-0.12-3.55-0.36
		c-4.01-0.77-6.97-2.45-8.57-4.85c-1.25-1.89-1.61-4.11-1.08-6.61c1.21-5.61,6.1-8.17,13.14-6.82
		C596.82,516.39,600.44,520.57,599.5,526.23 M590.72,510.29c-1.86-0.36-3.63-0.53-5.29-0.53c-7.75,0-13.1,3.83-14.69,10.79
		c-0.85,3.7-0.3,7.16,1.56,10.01c2.45,3.75,6.98,6.35,13.1,7.52c6.1,1.17,11.27,0.43,14.92-2.14c2.78-1.96,4.56-4.99,5.14-8.74
		C606.8,518.63,601.28,512.31,590.72,510.29"/>
	<path d="M636.02,529.49c-0.83,0.68-2.05,1.02-3.71,1.02c-0.5,0-1.04-0.03-1.62-0.09c-4.79-0.5-7.19-0.77-12.22-1.42l-0.24-0.03
		l0.03-0.24c0.31-2.4,0.5-3.9,0.75-5.85l0.31-2.38l0.25,0.03c4.88,0.63,7.23,0.9,12,1.4c2.64,0.27,6.1,1.08,5.75,4.86
		C637.21,527.96,636.77,528.87,636.02,529.49 M632.56,517.3c-7.37-0.76-11.02-1.2-18.36-2.24c-0.85,6-1.46,10.32-2.11,14.89
		c-0.48,3.41-0.98,6.95-1.62,11.43c2.38,0.33,3.67,0.51,6.05,0.82c0.42-3.31,0.65-5.04,1.08-8.43l0.04-0.25l0.25,0.03
		c5.29,0.68,7.81,0.97,12.84,1.49c4.23,0.42,7.59-0.32,9.81-2.17c1.64-1.37,2.56-3.27,2.75-5.64
		C643.72,521.75,639.71,518.04,632.56,517.3"/>
	<path d="M667.17,535.98l-0.42-0.01c-4.65-0.15-6.95-0.24-11.7-0.51l-0.41-0.02l0.21-0.35c2.56-4.24,3.8-6.35,6.32-10.74l0.24-0.41
		l0.2,0.44c2.08,4.47,3.15,6.71,5.37,11.24L667.17,535.98z M658.41,519.28c-6.42,10.65-9.68,15.77-16.32,25.59
		c2.43,0.19,3.81,0.29,6.46,0.47c1.33-2.12,2.01-3.23,3.34-5.4l0.08-0.13l0.15,0.01c6.91,0.42,10.29,0.57,17.22,0.75l0.15,0
		l0.07,0.13c1.14,2.28,1.72,3.44,2.87,5.66c2.62,0.05,4.01,0.07,6.55,0.09c-5.93-10.67-8.73-16.05-14.03-26.91
		C662.29,519.47,660.95,519.41,658.41,519.28"/>
	<path d="M698.81,530.05c-5.68-0.26-9.78-0.44-9.81-3.01c-0.03-2.91,5.32-3.45,8.52-3.52c0.24-0.01,0.46-0.01,0.69-0.01
		c4.42,0,7.84,0.87,10.67,2.71c1.16-1.6,1.81-2.48,2.95-4.08c-3.59-2.34-8.6-3.45-14.45-3.3c-8.93,0.26-14.27,3.52-14.27,8.71
		c0,4.63,5.01,7.15,15.33,7.68c6.56,0.35,9.67,0.78,9.79,3.27c0.03,0.69-0.19,1.3-0.66,1.81c-1.17,1.27-3.84,1.96-8.16,2.09
		c-0.35,0.01-0.69,0.02-1.03,0.02c-5.33,0-9.55-1.37-12.86-4.15c-1.32,1.51-2.06,2.35-3.4,3.85c4.16,3.27,9.71,5,16.11,5
		c0.38,0,0.78-0.01,1.17-0.02c5.98-0.19,10.6-1.74,12.99-4.37c1.33-1.47,1.95-3.19,1.83-5.13
		C713.88,531.91,707.81,530.47,698.81,530.05"/>
	<path d="M727.18,539.89l-0.25,0.02l-0.02-0.25l-0.53-6.19l0.25-0.02c7.33-0.63,10.97-1.01,18.26-1.91l-0.01-0.09
		c-0.22-1.76-0.34-2.78-0.56-4.56c-7.19,0.89-10.79,1.26-18.09,1.89l-0.25,0.02l-0.03-0.38c-0.19-2.13-0.28-3.24-0.46-5.41
		l-0.02-0.25l0.25-0.02c8.74-0.76,13-1.22,21.42-2.32l-0.61-4.66c-10.82,1.42-16.25,1.97-27.16,2.78l0.26,3.69
		c0.61,8.29,1,13.58,1.69,22.83c11.66-0.85,17.46-1.45,29.07-2.98l-0.61-4.65C740.81,538.62,736.33,539.1,727.18,539.89"/>
	<path d="M780.95,529.95c-1.63,2.39-4.61,4.02-8.62,4.73c-1.17,0.21-2.28,0.31-3.33,0.31c-2.55,0-4.73-0.61-6.38-1.8
		c-1.84-1.32-2.97-3.27-3.36-5.79c-0.87-5.68,2.8-9.81,9.83-11.05c7.04-1.23,11.9,1.37,13.03,7.01
		C782.62,525.86,782.23,528.07,780.95,529.95 M773.2,511.12c-1.55,0-3.21,0.15-4.94,0.46c-10.59,1.87-16.19,8.11-14.99,16.69
		c0.52,3.76,2.26,6.8,5.02,8.81c3.61,2.62,8.75,3.42,14.88,2.36c6.13-1.08,10.69-3.61,13.19-7.32c1.91-2.83,2.5-6.29,1.71-9.99
		C786.56,515.05,781.14,511.12,773.2,511.12"/>
	<path d="M821,500.14c-2.85,6.75-4.33,10.08-7.5,16.87l-0.12,0.27l-0.24-0.17c-6.11-4.29-9.05-6.44-14.9-10.9
		c-2.49,0.61-3.8,0.91-6.3,1.48l5.88,25.93c2.27-0.51,3.51-0.8,5.77-1.34l-4.49-18.75l0.55,0.4c6.22,4.57,9.29,6.73,15.54,10.95
		l0.1-0.03c3.34-6.8,4.93-10.2,8.05-17.22l0.27-0.62l0.19,0.65c2.1,7.15,3.16,10.77,5.23,17.85c2.32-0.68,3.59-1.06,5.91-1.77
		l-1.24-4.02c-2.35-7.67-3.9-12.71-6.58-21.4C824.66,499.06,823.39,499.44,821,500.14"/>
</g>
<g>
	<path d="M567.63,243.88c0.4,0.67,0.74,1.4,0.97,2.24c0.23,0.85,0.32,1.64,0.28,2.44c2.78-0.77,4.17-1.14,6.96-1.86
		c-0.49-1.88-0.73-2.82-1.21-4.69C571.82,242.74,570.42,243.11,567.63,243.88 M579.96,261.92c-0.59-2.31-3.84-2.89-8.9-1.48
		c-5.02,1.4-7.56,3.59-6.87,5.87c0.71,2.36,3.95,2.72,8.89,1.35C578.04,266.28,580.58,264.3,579.96,261.92 M583.95,260.91
		c1.06,4.28-2.83,7.85-10.02,9.85c-7.19,2-12.35,0.95-13.66-3.26c-1.3-4.17,2.48-8.09,9.92-10.16
		C577.62,255.27,582.9,256.67,583.95,260.91 M560.6,253.8c3.12-0.93,4.88-3.58,4.03-6.56c-0.86-3.01-3.81-4.33-7-3.37
		c-3.26,0.98-5.01,3.7-4.07,6.69C554.48,253.51,557.41,254.75,560.6,253.8 M567.91,252.25c-1.19,2.23-3.42,3.99-6.32,4.85
		c-5.35,1.6-10.42-0.49-11.98-5.29c-1.57-4.83,1.46-9.59,7.02-11.26c3.05-0.91,5.97-0.59,8.18,0.64c3.58-1.01,5.38-1.49,8.98-2.42
		c-0.5-1.92-0.74-2.88-1.24-4.8c1.72-0.44,2.58-0.66,4.3-1.08c2.03,8.22,3.05,12.32,5.08,20.54c-1.64,0.41-2.46,0.61-4.09,1.03
		c-0.47-1.83-0.71-2.74-1.18-4.57C573.15,250.8,571.4,251.27,567.91,252.25"/>
	<path d="M622.63,242.67c-2.1,0.3-3.15,0.46-5.24,0.79c1.08,6.92,1.63,10.38,2.72,17.29c-1.61,0.25-2.41,0.38-4.01,0.65
		c-2.38-14.16-3.55-21.24-5.92-35.4c1.75-0.29,2.62-0.43,4.36-0.71c0.93,5.93,1.39,8.9,2.32,14.83c2.11-0.33,3.17-0.49,5.29-0.79
		C622.34,240.67,622.43,241.33,622.63,242.67 M600.14,247.66c2.86-0.57,4.55-2.26,4.14-4.4c-0.41-2.19-2.63-3.15-5.54-2.57
		c-2.9,0.58-4.63,2.33-4.17,4.51C595.03,247.33,597.28,248.23,600.14,247.66 M608.87,233.8c-8.93,1.55-13.38,2.43-22.25,4.45
		c-0.29-1.29-0.44-1.93-0.73-3.21c3.62-0.82,5.44-1.21,9.08-1.96c-0.32-1.59-0.49-2.38-0.82-3.97c1.74-0.36,2.6-0.53,4.34-0.87
		c0.31,1.59,0.47,2.39,0.77,3.98c3.61-0.7,5.42-1.03,9.04-1.66C608.53,231.85,608.65,232.5,608.87,233.8 M603.4,253.45
		c3.03-0.75,6.05-1.51,8.86-2.43c0.33,1.17,0.5,1.75,0.83,2.92c-7.42,2.64-15.6,4.39-21.67,5.77c-0.52-1.27-0.78-1.9-1.3-3.16
		c2.72-0.62,5.93-1.32,9.23-2.13c-0.28-1.37-0.42-2.06-0.7-3.42c-4.13,0.16-7.26-1.62-8-4.95c-0.88-3.95,2.16-7.37,7.49-8.43
		c5.28-1.06,9.39,0.93,10.1,4.92c0.6,3.36-1.59,6.24-5.47,7.64C603.02,251.49,603.15,252.14,603.4,253.45"/>
	<path d="M655.56,230.01c0.11,1.72,0.17,2.59,0.28,4.31c2.07-0.13,3.1-0.19,5.18-0.3c0.07,1.35,0.1,2.02,0.17,3.37
		c-2.06,0.1-3.08,0.16-5.13,0.29c0.15,2.44,0.23,3.66,0.38,6.1c-1.67,0.1-2.5,0.16-4.17,0.28c-0.67-9.15-1.01-13.73-1.67-22.88
		c1.76-0.13,2.64-0.19,4.4-0.3c0.15,2.3,0.21,3.45,0.36,5.74c2.11-0.13,3.16-0.19,5.27-0.3c0.07,1.35,0.1,2.02,0.17,3.37
		C658.69,229.82,657.65,229.88,655.56,230.01 M653.19,250.62c-0.15-2.06-3.12-2.94-8.1-2.48c-4.97,0.45-7.73,1.86-7.5,3.91
		c0.23,2.09,3.19,2.83,8.09,2.37C650.57,253.98,653.34,252.72,653.19,250.62 M638.22,240.64c2.94-0.31,4.82-1.76,4.63-3.81
		c-0.2-2.09-2.35-3.18-5.34-2.86c-2.99,0.32-4.82,1.82-4.58,3.91C633.18,239.93,635.28,240.95,638.22,240.64 M657.25,250.35
		c0.25,3.96-4.08,6.54-11.29,7.2c-7.21,0.66-11.95-1.09-12.43-5.03c-0.47-3.9,3.84-6.82,11.27-7.5
		C652.24,244.34,657.01,246.43,657.25,250.35 M638.54,243.64c-5.27,0.56-9.19-1.44-9.68-5.26c-0.49-3.86,2.9-6.83,8.33-7.41
		c5.47-0.58,9.36,1.62,9.69,5.5C647.21,240.3,643.85,243.08,638.54,243.64 M648.24,228.43c-8.95,0.72-13.42,1.19-22.34,2.37
		c-0.17-1.29-0.26-1.94-0.43-3.23c3.62-0.48,5.43-0.7,9.07-1.1c-0.18-1.61-0.26-2.41-0.44-4.02c1.76-0.2,2.63-0.29,4.39-0.47
		c0.16,1.61,0.24,2.42,0.4,4.02c3.63-0.37,5.45-0.53,9.09-0.82C648.09,226.48,648.14,227.13,648.24,228.43"/>
	<path d="M673.35,229.33c0.06,2.89,3.62,4.54,9.01,4.54c5.35-0.01,8.9-1.67,8.96-4.57c0.05-2.85-3.51-4.69-8.97-4.68
		C676.84,224.63,673.28,226.47,673.35,229.33 M668.91,229.45c-0.15-4.8,5.29-8.12,13.43-8.13c8.1-0.01,13.55,3.28,13.41,8.09
		c-0.14,4.84-5.58,7.74-13.39,7.75C674.51,237.17,669.07,234.29,668.91,229.45 M699.06,243.9c-3.3-0.13-4.96-0.17-8.26-0.24
		c-0.09,4.91-0.14,7.36-0.22,12.26c-1.65-0.03-2.48-0.04-4.13-0.05c0.04-4.91,0.06-7.36,0.09-12.27c-3.33-0.03-5-0.03-8.34,0.01
		c0.06,4.91,0.09,7.36,0.15,12.26c-1.65,0.02-2.48,0.03-4.13,0.07c-0.11-4.91-0.16-7.36-0.27-12.26c-3.24,0.07-4.86,0.12-8.09,0.26
		c-0.06-1.35-0.09-2.02-0.14-3.37c13.36-0.55,20.06-0.56,33.42-0.05C699.11,241.88,699.09,242.55,699.06,243.9"/>
	<path d="M727.09,226.4c-3.51-0.36-5.27-0.52-8.79-0.8c-0.19,2.31-0.28,3.47-0.47,5.78c3.48,0.28,5.21,0.44,8.68,0.79
		C726.74,229.86,726.85,228.71,727.09,226.4 M711.95,253.51c8.54,0.61,12.81,1.02,21.32,2.07c-0.15,1.21-0.22,1.82-0.38,3.03
		c-10.04-1.24-15.08-1.71-25.17-2.32c0.21-3.42,0.31-5.13,0.52-8.56c8.26,0.5,12.39,0.86,20.62,1.77c0.11-0.99,0.17-1.49,0.28-2.49
		c-8.32-0.92-12.49-1.28-20.84-1.79c0.07-1.2,0.11-1.81,0.18-3.01c10.05,0.61,15.07,1.06,25.08,2.28c-0.4,3.31-0.6,4.96-1,8.27
		c-8.16-0.99-12.25-1.38-20.43-1.96C712.06,251.89,712.03,252.43,711.95,253.51 M713.94,225.27c-2.17-0.15-3.25-0.22-5.41-0.35
		c0.07-1.25,0.11-1.88,0.18-3.13c11.41,0.67,17.11,1.18,28.46,2.59c-0.15,1.25-0.23,1.87-0.39,3.11c-2.14-0.26-3.21-0.39-5.35-0.63
		c-0.26,2.3-0.38,3.46-0.64,5.76c2.03,0.23,3.04,0.35,5.07,0.6c-0.15,1.23-0.23,1.84-0.38,3.07c-10.88-1.34-16.34-1.84-27.27-2.48
		c0.07-1.24,0.11-1.86,0.18-3.09c2.05,0.12,3.08,0.19,5.14,0.33C713.69,228.74,713.78,227.59,713.94,225.27 M738.5,239.2
		c-0.17,1.29-0.26,1.94-0.42,3.23c-13.31-1.75-20-2.36-33.39-3.04c0.07-1.3,0.1-1.96,0.17-3.26
		C718.34,236.82,725.09,237.44,738.5,239.2"/>
	<path d="M765.82,249.47c-1.54-0.31-2.31-0.46-3.85-0.75c1.54-8.08,2.31-12.12,3.85-20.2c1.61,0.31,2.43,0.47,4.04,0.79
		c-0.66,3.29-0.99,4.93-1.65,8.21c1.65,0.33,2.48,0.5,4.12,0.85c0.74-3.54,1.12-5.31,1.87-8.86c1.65,0.35,2.47,0.52,4.12,0.89
		c-2.09,9.47-3.14,14.21-5.22,23.68c-1.56-0.34-2.34-0.51-3.9-0.84c0.98-4.65,1.47-6.97,2.44-11.61c-1.64-0.34-2.45-0.51-4.09-0.84
		C766.86,244.27,766.51,246,765.82,249.47 M763.14,251.21c-0.81,4.17,3.32,8.91,9.88,11.36c-0.9,1.1-1.35,1.65-2.24,2.76
		c-5.17-2.08-9.06-5.46-10.59-9.43c-2.89,3.13-7.78,4.85-13.38,4.88c-0.42-1.35-0.64-2.03-1.07-3.38
		c6.98,0.12,12.56-2.78,13.33-6.95c0.06-0.32,0.09-0.47,0.15-0.79c1.63,0.3,2.45,0.46,4.08,0.78
		C763.24,250.75,763.2,250.9,763.14,251.21 M760.66,247.02c-4.51,0-8.24-0.45-13.57-1.27c-0.99-0.15-1.48-0.23-2.47-0.37
		c0.63-4.27,0.94-6.41,1.57-10.68c3.98,0.59,5.97,0.91,9.94,1.59c0.28-1.63,0.42-2.44,0.7-4.07c-4.04-0.69-6.07-1.02-10.12-1.61
		c0.19-1.27,0.28-1.91,0.47-3.18c5.77,0.85,8.65,1.32,14.39,2.37c-0.74,4.09-1.12,6.14-1.86,10.23c-3.94-0.72-5.91-1.05-9.86-1.67
		c-0.28,1.75-0.42,2.63-0.69,4.39c4.4,0.66,7.76,1.04,11.68,1C760.78,245.06,760.73,245.71,760.66,247.02"/>
	<path d="M795.54,245.87c3.38,0.91,5.07,1.39,8.44,2.37c0.74-2.53,1.11-3.79,1.84-6.32c-3.42-1-5.13-1.48-8.56-2.41
		C796.58,242.05,796.23,243.32,795.54,245.87 M785.99,265.31c6.46,1.67,9.67,2.58,16.08,4.52c0.58-1.9,0.86-2.85,1.44-4.75
		c-6.48-1.96-9.74-2.88-16.27-4.58C786.73,262.42,786.48,263.39,785.99,265.31 M784.02,256.33c9.81,2.44,14.69,3.81,24.38,6.86
		c-1.37,4.38-2.07,6.57-3.44,10.94c-9.42-2.96-14.17-4.3-23.71-6.67C782.36,263.01,782.91,260.78,784.02,256.33 M814.21,258.54
		c-0.4,1.24-0.6,1.86-1.01,3.1c-12.86-4.18-19.35-6-32.42-9.12c0.3-1.27,0.45-1.9,0.75-3.17c5.74,1.37,8.61,2.11,14.31,3.68
		c0.37-1.36,0.56-2.04,0.94-3.41c-4.48-1.24-6.72-1.82-11.23-2.93c0.32-1.28,0.47-1.92,0.79-3.2c2.01,0.5,3.01,0.75,5.01,1.27
		c0.66-2.55,0.99-3.83,1.65-6.38c-2.12-0.55-3.17-0.82-5.29-1.34c0.32-1.28,0.47-1.92,0.79-3.2c11.17,2.75,16.72,4.31,27.75,7.8
		c-0.4,1.26-0.6,1.89-1,3.14c-2.08-0.66-3.12-0.98-5.2-1.61c-0.77,2.52-1.15,3.78-1.91,6.3c1.97,0.6,2.95,0.9,4.92,1.52
		c-0.4,1.26-0.6,1.89-1,3.14c-4.42-1.4-6.64-2.07-11.1-3.34c-0.39,1.36-0.58,2.04-0.97,3.4C805.7,255.83,808.55,256.7,814.21,258.54
		"/>
</g>
</svg>
