<!-- <svg xmlns="http://www.w3.org/2000/svg" viewBox="0 0 1428.2922 41">
  <defs>
    <style>.a{fill:none;stroke:#000;stroke-miterlimit:10;stroke-width:2px;}.b{fill:#fff;}</style>
  </defs>
  <line class="a" x1="2.5704" y1="31.1401" x2="1428.2922" y2="31.1401" />
  <rect class="b" x="0.3717" y="9.3075" width="152.8901" height="31.6925" />
  <path class="a" d="M144.7861,31.2091h8.4757m-73.8144,0h-6.542m66.9479-15.1077a6.137,6.137,0,0,0,2.884-4.9755,6.9,6.9,0,0,0-2.64-5.8333,8.5548,8.5548,0,0,0-8.2553-.9693m10.9059-.596a13.2057,13.2057,0,0,0-11.6821-2.1814c-4.6046,1.4218-8.4816,5.4873-10.6382,11.156-3.2123,8.4437-12.93,18.5072-40.98,18.5072M125.8,4.584c-3.7041,5.95-2.409,14.25.95,18.6838,3.7681,4.9731,10.5091,7.9413,18.0357,7.9413" transform="translate(0 0)" />
  <path class="a" d="M66.9965,31.2091H80.2331m-66.9964,0H0m13.2367,0c17.8555,0,29.982-5.41,33.7181-15.2286,1.7738-4.6638,4.9648-8.0088,8.7529-9.1783A10.8,10.8,0,0,1,65.32,8.5961m-13.9441.7062c-3.0489,4.8961-1.9824,11.7236.782,15.372,3.1,4.0927,8.6464,6.5348,14.8388,6.5348" transform="translate(0 0)" />
  <rect class="b" x="350.3717" y="9.3075" width="152.8901" height="31.6925" />
  <path class="a" d="M494.7861,31.2091h8.4757m-73.8144,0h-6.542m66.9479-15.1077a6.137,6.137,0,0,0,2.884-4.9755,6.9,6.9,0,0,0-2.64-5.8333,8.5548,8.5548,0,0,0-8.2553-.9693m10.9059-.596a13.2057,13.2057,0,0,0-11.6821-2.1814c-4.6046,1.4218-8.4816,5.4873-10.6382,11.156-3.2123,8.4437-12.93,18.5072-40.98,18.5072M475.8,4.584c-3.7041,5.95-2.409,14.25.95,18.6838,3.7681,4.9731,10.5091,7.9413,18.0357,7.9413" transform="translate(0 0)" />
  <path class="a" d="M416.9965,31.2091h13.2366m-66.9964,0H350m13.2367,0c17.8555,0,29.982-5.41,33.7181-15.2286,1.7738-4.6638,4.9648-8.0088,8.7529-9.1783A10.8,10.8,0,0,1,415.32,8.5961m-13.9441.7062c-3.0489,4.8961-1.9824,11.7236.782,15.372,3.1,4.0927,8.6464,6.5348,14.8388,6.5348" transform="translate(0 0)" />
  <rect class="b" x="677.2922" y="9.3075" width="79.9695" height="31.6925" />
  <path class="a" d="M748.7861,31.2091h8.4757m-73.8144,0h-6.542m66.9479-15.1077a6.137,6.137,0,0,0,2.884-4.9755,6.9,6.9,0,0,0-2.64-5.8333,8.5548,8.5548,0,0,0-8.2553-.9693m10.9059-.596a13.2057,13.2057,0,0,0-11.6821-2.1814c-4.6046,1.4218-8.4816,5.4873-10.6382,11.156-3.2123,8.4437-12.93,18.5072-40.98,18.5072M729.8,4.584c-3.7041,5.95-2.409,14.25.95,18.6838,3.7681,4.9731,10.5091,7.9413,18.0357,7.9413" transform="translate(0 0)" />
  <rect class="b" x="1319.2922" y="9.3075" width="79.9695" height="31.6925" />
  <path class="a" d="M1390.7861,31.2091h8.4757m-73.8144,0h-6.542m66.9479-15.1077a6.137,6.137,0,0,0,2.884-4.9755,6.9,6.9,0,0,0-2.64-5.8333,8.5548,8.5548,0,0,0-8.2553-.9693m10.9059-.596a13.2057,13.2057,0,0,0-11.6821-2.1814c-4.6046,1.4218-8.4816,5.4873-10.6382,11.156-3.2123,8.4437-12.93,18.5072-40.98,18.5072M1371.8,4.584c-3.7041,5.95-2.409,14.25.95,18.6838,3.7681,4.9731,10.5091,7.9413,18.0357,7.9413" transform="translate(0 0)" />
  <rect class="b" x="571.3717" y="9.3075" width="73.9205" height="31.6925" />
  <path class="a" d="M631.9965,31.2091h13.2366m-66.9964,0H565m13.2367,0c17.8555,0,29.982-5.41,33.7181-15.2286,1.7738-4.6638,4.9648-8.0088,8.7529-9.1783A10.8,10.8,0,0,1,630.32,8.5961m-13.9441.7062c-3.0489,4.8961-1.9824,11.7236.782,15.372,3.1,4.0927,8.6464,6.5348,14.8388,6.5348" transform="translate(0 0)" />
  <rect class="b" x="939.3717" y="9.3075" width="73.9205" height="31.6925" />
  <path class="a" d="M999.9965,31.2091h13.2366m-66.9964,0H933m13.2367,0c17.8555,0,29.982-5.41,33.7181-15.2286,1.7738-4.6638,4.9648-8.0088,8.7529-9.1783A10.8,10.8,0,0,1,998.32,8.5961m-13.9441.7062c-3.0489,4.8961-1.9824,11.7236.782,15.372,3.1,4.0927,8.6464,6.5348,14.8388,6.5348" transform="translate(0 0)" />
  <rect class="b" x="1144.3717" y="9.3075" width="73.9205" height="31.6925" />
  <path class="a" d="M1204.9965,31.2091h13.2366m-66.9964,0H1138m13.2367,0c17.8555,0,29.982-5.41,33.7181-15.2286,1.7738-4.6638,4.9648-8.0088,8.7529-9.1783a10.8,10.8,0,0,1,9.6121,1.7939m-13.9441.7062c-3.0489,4.8961-1.9824,11.7236.782,15.372,3.1,4.0927,8.6464,6.5348,14.8388,6.5348" transform="translate(0 0)" />
  <rect class="b" x="874.3717" y="9.3075" width="73.9205" height="31.6925" />
  <path class="a" d="M934.9965,31.2091h13.2366m-66.9964,0H868m13.2367,0c17.8555,0,29.982-5.41,33.7181-15.2286,1.7738-4.6638,4.9648-8.0088,8.7529-9.1783A10.8,10.8,0,0,1,933.32,8.5961m-13.9441.7062c-3.0489,4.8961-1.9824,11.7236.782,15.372,3.1,4.0927,8.6464,6.5348,14.8388,6.5348" transform="translate(0 0)" />
</svg> -->

<svg xmlns="http://www.w3.org/2000/svg">
  <defs>
    <pattern id="waves" x="0" y="0" width="1428" height="1000" patternUnits="userSpaceOnUse">

      <line class="a" x1="2.5704" y1="31.1401" x2="1428.2922" y2="31.1401" />
      <rect class="b" x="0.3717" y="9.3075" width="152.8901" height="31.6925" />
      <path class="a" d="M144.7861,31.2091h8.4757m-73.8144,0h-6.542m66.9479-15.1077a6.137,6.137,0,0,0,2.884-4.9755,6.9,6.9,0,0,0-2.64-5.8333,8.5548,8.5548,0,0,0-8.2553-.9693m10.9059-.596a13.2057,13.2057,0,0,0-11.6821-2.1814c-4.6046,1.4218-8.4816,5.4873-10.6382,11.156-3.2123,8.4437-12.93,18.5072-40.98,18.5072M125.8,4.584c-3.7041,5.95-2.409,14.25.95,18.6838,3.7681,4.9731,10.5091,7.9413,18.0357,7.9413" transform="translate(0 0)" />
      <path class="a" d="M66.9965,31.2091H80.2331m-66.9964,0H0m13.2367,0c17.8555,0,29.982-5.41,33.7181-15.2286,1.7738-4.6638,4.9648-8.0088,8.7529-9.1783A10.8,10.8,0,0,1,65.32,8.5961m-13.9441.7062c-3.0489,4.8961-1.9824,11.7236.782,15.372,3.1,4.0927,8.6464,6.5348,14.8388,6.5348" transform="translate(0 0)" />
      <rect class="b" x="350.3717" y="9.3075" width="152.8901" height="31.6925" />
      <path class="a" d="M494.7861,31.2091h8.4757m-73.8144,0h-6.542m66.9479-15.1077a6.137,6.137,0,0,0,2.884-4.9755,6.9,6.9,0,0,0-2.64-5.8333,8.5548,8.5548,0,0,0-8.2553-.9693m10.9059-.596a13.2057,13.2057,0,0,0-11.6821-2.1814c-4.6046,1.4218-8.4816,5.4873-10.6382,11.156-3.2123,8.4437-12.93,18.5072-40.98,18.5072M475.8,4.584c-3.7041,5.95-2.409,14.25.95,18.6838,3.7681,4.9731,10.5091,7.9413,18.0357,7.9413" transform="translate(0 0)" />
      <path class="a" d="M416.9965,31.2091h13.2366m-66.9964,0H350m13.2367,0c17.8555,0,29.982-5.41,33.7181-15.2286,1.7738-4.6638,4.9648-8.0088,8.7529-9.1783A10.8,10.8,0,0,1,415.32,8.5961m-13.9441.7062c-3.0489,4.8961-1.9824,11.7236.782,15.372,3.1,4.0927,8.6464,6.5348,14.8388,6.5348" transform="translate(0 0)" />
      <rect class="b" x="677.2922" y="9.3075" width="79.9695" height="31.6925" />
      <path class="a" d="M748.7861,31.2091h8.4757m-73.8144,0h-6.542m66.9479-15.1077a6.137,6.137,0,0,0,2.884-4.9755,6.9,6.9,0,0,0-2.64-5.8333,8.5548,8.5548,0,0,0-8.2553-.9693m10.9059-.596a13.2057,13.2057,0,0,0-11.6821-2.1814c-4.6046,1.4218-8.4816,5.4873-10.6382,11.156-3.2123,8.4437-12.93,18.5072-40.98,18.5072M729.8,4.584c-3.7041,5.95-2.409,14.25.95,18.6838,3.7681,4.9731,10.5091,7.9413,18.0357,7.9413" transform="translate(0 0)" />
      <rect class="b" x="1319.2922" y="9.3075" width="79.9695" height="31.6925" />
      <path class="a" d="M1390.7861,31.2091h8.4757m-73.8144,0h-6.542m66.9479-15.1077a6.137,6.137,0,0,0,2.884-4.9755,6.9,6.9,0,0,0-2.64-5.8333,8.5548,8.5548,0,0,0-8.2553-.9693m10.9059-.596a13.2057,13.2057,0,0,0-11.6821-2.1814c-4.6046,1.4218-8.4816,5.4873-10.6382,11.156-3.2123,8.4437-12.93,18.5072-40.98,18.5072M1371.8,4.584c-3.7041,5.95-2.409,14.25.95,18.6838,3.7681,4.9731,10.5091,7.9413,18.0357,7.9413" transform="translate(0 0)" />
      <rect class="b" x="571.3717" y="9.3075" width="73.9205" height="31.6925" />
      <path class="a" d="M631.9965,31.2091h13.2366m-66.9964,0H565m13.2367,0c17.8555,0,29.982-5.41,33.7181-15.2286,1.7738-4.6638,4.9648-8.0088,8.7529-9.1783A10.8,10.8,0,0,1,630.32,8.5961m-13.9441.7062c-3.0489,4.8961-1.9824,11.7236.782,15.372,3.1,4.0927,8.6464,6.5348,14.8388,6.5348" transform="translate(0 0)" />
      <rect class="b" x="939.3717" y="9.3075" width="73.9205" height="31.6925" />
      <path class="a" d="M999.9965,31.2091h13.2366m-66.9964,0H933m13.2367,0c17.8555,0,29.982-5.41,33.7181-15.2286,1.7738-4.6638,4.9648-8.0088,8.7529-9.1783A10.8,10.8,0,0,1,998.32,8.5961m-13.9441.7062c-3.0489,4.8961-1.9824,11.7236.782,15.372,3.1,4.0927,8.6464,6.5348,14.8388,6.5348" transform="translate(0 0)" />
      <rect class="b" x="1144.3717" y="9.3075" width="73.9205" height="31.6925" />
      <path class="a" d="M1204.9965,31.2091h13.2366m-66.9964,0H1138m13.2367,0c17.8555,0,29.982-5.41,33.7181-15.2286,1.7738-4.6638,4.9648-8.0088,8.7529-9.1783a10.8,10.8,0,0,1,9.6121,1.7939m-13.9441.7062c-3.0489,4.8961-1.9824,11.7236.782,15.372,3.1,4.0927,8.6464,6.5348,14.8388,6.5348" transform="translate(0 0)" />
      <rect class="b" x="874.3717" y="9.3075" width="73.9205" height="31.6925" />
      <path class="a" d="M934.9965,31.2091h13.2366m-66.9964,0H868m13.2367,0c17.8555,0,29.982-5.41,33.7181-15.2286,1.7738-4.6638,4.9648-8.0088,8.7529-9.1783A10.8,10.8,0,0,1,933.32,8.5961m-13.9441.7062c-3.0489,4.8961-1.9824,11.7236.782,15.372,3.1,4.0927,8.6464,6.5348,14.8388,6.5348" transform="translate(0 0)" />
    </pattern>
    <style>.a{fill:none;stroke:#000;stroke-miterlimit:10;stroke-width:2px;}.b{fill:#fff;}</style>
  </defs>
  <rect x="0" y="0" width="100%" height="100%" fill="url(#waves)"></rect>
</svg>