<svg xmlns="http://www.w3.org/2000/svg" viewBox="0 0 153.26 41">
  <rect class="a" fill="#fff" x="0.37" y="9.31" width="152.89" height="31.69" />
  <path class="b" fill="none" stroke-miterlimit="10" stroke-width="2" d="M144.79,31.21h8.47m-73.81,0H72.91M139.85,16.1a6.13,6.13,0,0,0,2.89-5,6.94,6.94,0,0,0-2.64-5.84,8.57,8.57,0,0,0-8.26-1m10.91-.59a13.18,13.18,0,0,0-11.68-2.18C126.46,3,122.58,7,120.43,12.7c-3.21,8.45-12.93,18.51-41,18.51M125.8,4.58c-3.7,5.95-2.41,14.25,1,18.69,3.77,5,10.51,7.94,18,7.94" transform="translate(0 0)" />
  <path class="b" fill="none" stroke-miterlimit="10" stroke-width="2" d="M67,31.21H80.23m-67,0H0m13.24,0c17.85,0,30-5.41,33.71-15.23,1.78-4.66,5-8,8.76-9.18a10.8,10.8,0,0,1,9.61,1.8m-13.94.7c-3.05,4.9-2,11.73.78,15.37,3.1,4.1,8.64,6.54,14.84,6.54" transform="translate(0 0)" />
</svg>