<svg id="레이어_1" data-name="레이어 1" xmlns="http://www.w3.org/2000/svg" viewBox="0 0 416.46 326.24"><path d="M351.83,246.78c-36.13,19.65-87.13,30.47-143.6,30.47s-107.48-10.82-143.6-30.47c-37-20.1-56.53-48-56.53-80.72s19.55-60.62,56.53-80.73c36.13-19.64,87.13-30.46,143.6-30.46s107.46,10.82,143.6,30.46c37,20.12,56.52,48,56.52,80.73s-19.54,60.62-56.52,80.72M355.7,78.22C318.39,58,266,46.78,208.23,46.78S98.06,58,60.76,78.22C21,99.83,0,130.21,0,166.06s21,66.22,60.76,87.83c37.29,20.28,89.67,31.45,147.47,31.45S318.4,274.17,355.7,253.89c39.75-21.61,60.76-52,60.76-87.83s-21-66.22-60.76-87.84"/><path d="M185.13,179.07l-.81.07a145.65,145.65,0,0,0,2.09-26c0-9.88-1.3-16.59-3.62-22.88,3.14.19,6.45.29,10,.3H193a122.69,122.69,0,0,0,14-.87,70.51,70.51,0,0,1,3.58,22.53c0,11.26-1.2,21.65-3.18,28.24a89.6,89.6,0,0,0-22.23-1.37m64.69-40a20.9,20.9,0,0,0-3.92,1.26c.77-12.57,2-22.07,3.1-26.09l-7.23-1.9c-2.22,8.49-5.32,37.84-3.51,70.85-6.16,2.62-11.92,2.51-20.8-.25-1-.3-1.9-.56-2.84-.82,2.14-7.39,3.4-18.13,3.4-30a80.44,80.44,0,0,0-3.52-23.63,83.26,83.26,0,0,0,18-5l-3-6.87c-9.74,4.18-25.84,6.34-36.72,6.31-12.58,0-22.78-1.29-30.34-3.72l-2.29,7.12a78.78,78.78,0,0,0,14.29,3c2.55,5.77,4.49,12.18,4.49,23.63,0,11.9-1.25,22.43-2.57,27.4-7.1,1.73-14.78,4.62-18.14,6.87l4.17,6.21c3.54-2.38,16.06-6.68,23.14-7.07a79.11,79.11,0,0,1,29.7,3.59c9.49,2.95,16.54,3.25,23.54.89.57,7.38,1.4,14.87,2.56,22.29l7.39-1.15c-3.37-21.61-3.91-44.16-3.27-62.37,1-1.47,3.29-2.79,5.93-3.36a14.58,14.58,0,0,1,11,2l4.06-6.27a22,22,0,0,0-16.64-3"/><path d="M70,201.31c-5.68,1-9.75-.18-11.84-1.93a3.47,3.47,0,0,1-1.2-2.71,4,4,0,0,1,2.33-3.15,10,10,0,0,1,4-.78,14.24,14.24,0,0,1,7.58,2.46c2.17,1.36,5.49,2.84,7.69,4a61.55,61.55,0,0,1-8.58,2.1m26.14-1.61c7.79-5,12.3-11.7,11.74-21.85a22.3,22.3,0,0,0-2.4-8.62l-6.57,3.58a16.7,16.7,0,0,1,1.39,5.4c.43,7.19-2.84,13.53-13.38,18.09a99.23,99.23,0,0,1-13-7.09c-6.07-4-12.87-4.75-18.18-2a11,11,0,0,0-6.3,9.16,10.47,10.47,0,0,0,3.87,8.51c4,3.44,10.46,4.46,17.29,3.24a109.23,109.23,0,0,0,15.46-4,79.73,79.73,0,0,0,29.36,5.9,68.31,68.31,0,0,0,36.71-10.44l-4-6.31a62.54,62.54,0,0,1-52,6.48"/><path d="M102.09,144.54a46.42,46.42,0,0,0,10.86,17c8.56,7.87,17.85,11.8,32.06,13.57l.92-7.42C133.24,166.07,125.41,162.8,118,156a40.27,40.27,0,0,1-7.64-10.92c-2-4.06-3.86-10-1.89-15h0c6.27-11.44,14.73-10.28,18.41-9.08l2.33-7.1c-12.85-4.21-24.45,3.17-30.26,19.26-7.31,20.23-20.51,31.39-41.54,35.14l1.31,7.36C79,172,93.29,161.77,102.09,144.54"/><polygon points="344.61 114.72 344.61 139.64 322.88 139.64 322.88 147.12 344.61 147.12 344.61 173.69 352.09 173.69 352.09 114.72 344.61 114.72"/><path d="M295.2,151.72c5.76,9.75,17.73,18.38,30.22,20.55l1.28-7.36c-13.31-2.31-26.84-14.17-27.54-24.06,1.9-7.61,2.58-16.73,1.3-27.68L293,114c1.95,16.65-.81,30.26-8.2,40.45A42.77,42.77,0,0,1,263,170l2.19,7.15c6.27-2,21.56-8.26,30-25.39"/><path d="M282.09,187.11h62.52V206.7a46.45,46.45,0,0,1-16.3,2.9c-7,0-11.67-.78-21.69-3.62-7.47-2.12-18.7-2.62-24.52-2.74V187.11Zm-7.48,23.63,3.77,0c.17,0,17-.13,26.19,2.48,9.52,2.7,15.21,3.9,23.73,3.9a50.67,50.67,0,0,0,21.78-4.61l2-1.05V179.63H274.61Z"/></svg>