<svg id="레이어_1" data-name="레이어 1" xmlns="http://www.w3.org/2000/svg" viewBox="0 0 416.46 326.24"><path d="M63,285.08c-1.35,4.43,2.76,8.31,12.57,11.85,6.23,2.25,9.09,3.57,8.49,6a2.42,2.42,0,0,1-1.15,1.54c-1.49.88-4.26.76-8.48-.38-5.68-1.53-9.68-4.15-12.22-8-1.72,1.06-2.68,1.64-4.41,2.68,3.25,4.62,8.52,8,15.24,9.84,5.84,1.57,10.75,1.43,13.83-.4a6.75,6.75,0,0,0,3.24-4.36c1.31-5.53-4.12-8.68-12.68-11.7-5.4-1.91-9.3-3.3-8.59-5.76.81-2.8,6.14-1.75,9.24-.87,4.62,1.3,7.86,3.18,10.18,5.91,1.59-1.19,2.46-1.85,4-3-2.77-3.29-7.25-5.84-13-7.4-8.72-2.39-14.81-.83-16.31,4.13"/><path d="M124.73,305.35h0a8.33,8.33,0,0,1-3.44,5.74,10.69,10.69,0,0,1-6.18,1.71,18.91,18.91,0,0,1-3.55-.36c-4-.77-7-2.45-8.57-4.85a8.4,8.4,0,0,1-1.08-6.61c1.21-5.61,6.1-8.17,13.14-6.82s10.62,5.53,9.68,11.19M116,289.41a27.89,27.89,0,0,0-5.29-.53c-7.75,0-13.1,3.83-14.69,10.79a12.7,12.7,0,0,0,1.56,10c2.45,3.75,7,6.35,13.1,7.52s11.27.43,14.92-2.14a12.74,12.74,0,0,0,5.14-8.74c1.34-8.57-4.18-14.89-14.74-16.91"/><path d="M161.25,308.61a5.72,5.72,0,0,1-3.71,1,15.81,15.81,0,0,1-1.62-.09c-4.79-.5-7.19-.77-12.22-1.42l-.24,0,0-.24c.31-2.4.5-3.9.75-5.85l.31-2.38.25,0c4.88.63,7.23.9,12,1.4,2.64.27,6.1,1.08,5.75,4.86a3.81,3.81,0,0,1-1.3,2.7m-3.46-12.19c-7.37-.76-11-1.2-18.36-2.24-.85,6-1.46,10.32-2.11,14.89-.48,3.41-1,6.95-1.62,11.43,2.38.33,3.67.51,6.05.82.42-3.31.65-5,1.08-8.43l0-.25.25,0c5.29.68,7.81,1,12.84,1.49,4.23.42,7.59-.32,9.81-2.17a7.86,7.86,0,0,0,2.75-5.64c.43-5.48-3.58-9.19-10.73-9.93"/><path d="M192.4,315.1H192c-4.65-.15-6.95-.24-11.7-.51l-.41,0,.21-.35c2.56-4.24,3.8-6.35,6.32-10.74l.24-.41.2.44c2.08,4.47,3.15,6.71,5.37,11.24Zm-8.76-16.7c-6.42,10.65-9.68,15.77-16.32,25.59,2.43.19,3.81.29,6.46.47,1.33-2.12,2-3.23,3.34-5.4l.08-.13h.15c6.91.42,10.29.57,17.22.75h.15l.07.13c1.14,2.28,1.72,3.44,2.87,5.66,2.62,0,4,.07,6.55.09-5.93-10.67-8.73-16.05-14-26.91-2.66-.07-4-.13-6.54-.26"/><path d="M224,309.17c-5.68-.26-9.78-.44-9.81-3,0-2.91,5.32-3.45,8.52-3.52h.69c4.42,0,7.84.87,10.67,2.71,1.16-1.6,1.81-2.48,2.95-4.08-3.59-2.34-8.6-3.45-14.45-3.3-8.93.26-14.27,3.52-14.27,8.71,0,4.63,5,7.15,15.33,7.68,6.56.35,9.67.78,9.79,3.27a2.43,2.43,0,0,1-.66,1.81c-1.17,1.27-3.84,2-8.16,2.09l-1,0c-5.33,0-9.55-1.37-12.86-4.15-1.32,1.51-2.06,2.35-3.4,3.85,4.16,3.27,9.71,5,16.11,5l1.17,0c6-.19,10.6-1.74,13-4.37a6.78,6.78,0,0,0,1.83-5.13c-.34-5.69-6.41-7.13-15.41-7.55"/><path d="M252.41,319l-.25,0,0-.25-.53-6.19.25,0c7.33-.63,11-1,18.26-1.91v-.09c-.22-1.76-.34-2.78-.56-4.56-7.19.89-10.79,1.26-18.09,1.89l-.25,0,0-.38c-.19-2.13-.28-3.24-.46-5.41l0-.25.25,0c8.74-.76,13-1.22,21.42-2.32l-.61-4.66c-10.82,1.42-16.25,2-27.16,2.78l.26,3.69c.61,8.29,1,13.58,1.69,22.83,11.66-.85,17.46-1.45,29.07-3l-.61-4.65c-9,1.19-13.45,1.67-22.6,2.46"/><path d="M306.18,309.07c-1.63,2.39-4.61,4-8.62,4.73a18.85,18.85,0,0,1-3.33.31,10.76,10.76,0,0,1-6.38-1.8,8.39,8.39,0,0,1-3.36-5.79c-.87-5.68,2.8-9.81,9.83-11s11.9,1.37,13,7a8.36,8.36,0,0,1-1.17,6.59m-7.75-18.83a28.13,28.13,0,0,0-4.94.46c-10.59,1.87-16.19,8.11-15,16.69a12.7,12.7,0,0,0,5,8.81c3.61,2.62,8.75,3.42,14.88,2.36s10.69-3.61,13.19-7.32a12.71,12.71,0,0,0,1.71-10c-1.51-7.08-6.93-11-14.87-11"/><path d="M346.23,279.26c-2.85,6.75-4.33,10.08-7.5,16.87l-.12.27-.24-.17c-6.11-4.29-9.05-6.44-14.9-10.9-2.49.61-3.8.91-6.3,1.48l5.88,25.93c2.27-.51,3.51-.8,5.77-1.34l-4.49-18.75.55.4c6.22,4.57,9.29,6.73,15.54,10.95l.1,0c3.34-6.8,4.93-10.2,8.05-17.22l.27-.62.19.65c2.1,7.15,3.16,10.77,5.23,17.85,2.32-.68,3.59-1.06,5.91-1.77l-1.24-4c-2.35-7.67-3.9-12.71-6.58-21.4-2.46.74-3.73,1.12-6.12,1.82"/><path d="M92.86,23a8.92,8.92,0,0,1,1,2.24,7.7,7.7,0,0,1,.28,2.44c2.78-.77,4.17-1.14,7-1.86-.49-1.88-.73-2.82-1.21-4.69-2.81.73-4.21,1.1-7,1.87m12.33,18c-.59-2.31-3.84-2.89-8.9-1.48s-7.56,3.59-6.87,5.87,4,2.72,8.89,1.35,7.5-3.36,6.88-5.74m4-1c1.06,4.28-2.83,7.85-10,9.85s-12.35.95-13.66-3.26S88,38.53,95.42,36.46s12.71-.67,13.76,3.57M85.83,32.92c3.12-.93,4.88-3.58,4-6.56S86.05,22,82.86,23s-5,3.7-4.07,6.69,3.85,4.19,7,3.24m7.31-1.55a10.32,10.32,0,0,1-6.32,4.85c-5.35,1.6-10.42-.49-12-5.29s1.46-9.59,7-11.26a10.58,10.58,0,0,1,8.18.64c3.58-1,5.38-1.49,9-2.42-.5-1.92-.74-2.88-1.24-4.8,1.72-.44,2.58-.66,4.3-1.08,2,8.22,3,12.32,5.08,20.54l-4.09,1L101.89,29c-3.51.91-5.26,1.38-8.75,2.36"/><path d="M147.86,21.79c-2.1.3-3.15.46-5.24.79,1.08,6.92,1.63,10.38,2.72,17.29-1.61.25-2.41.38-4,.65-2.38-14.16-3.55-21.24-5.92-35.4l4.36-.71c.93,5.93,1.39,8.9,2.32,14.83,2.11-.33,3.17-.49,5.29-.79.19,1.34.28,2,.48,3.34m-22.49,5c2.86-.57,4.55-2.26,4.14-4.4s-2.63-3.15-5.54-2.57-4.63,2.33-4.17,4.51,2.71,3,5.57,2.46m8.73-13.86c-8.93,1.55-13.38,2.43-22.25,4.45-.29-1.29-.44-1.93-.73-3.21,3.62-.82,5.44-1.21,9.08-2-.32-1.59-.49-2.38-.82-4,1.74-.36,2.6-.53,4.34-.87.31,1.59.47,2.39.77,4,3.61-.7,5.42-1,9-1.66.23,1.29.35,1.94.57,3.24m-5.47,19.65c3-.75,6.05-1.51,8.86-2.43l.83,2.92a192.22,192.22,0,0,1-21.67,5.77l-1.3-3.16c2.72-.62,5.93-1.32,9.23-2.13l-.7-3.42c-4.13.16-7.26-1.62-8-4.95-.88-4,2.16-7.37,7.49-8.43s9.39.93,10.1,4.92c.6,3.36-1.59,6.24-5.47,7.64.25,1.31.38,2,.63,3.27"/><path d="M180.79,9.13c.11,1.72.17,2.59.28,4.31,2.07-.13,3.1-.19,5.18-.3.07,1.35.1,2,.17,3.37-2.06.1-3.08.16-5.13.29.15,2.44.23,3.66.38,6.1-1.67.1-2.5.16-4.17.28-.67-9.15-1-13.73-1.67-22.88l4.4-.3c.15,2.3.21,3.45.36,5.74,2.11-.13,3.16-.19,5.27-.3.07,1.35.1,2,.17,3.37l-5.24.32m-2.37,20.61c-.15-2.06-3.12-2.94-8.1-2.48s-7.73,1.86-7.5,3.91S166,34,170.91,33.54s7.66-1.7,7.51-3.8m-15-10c2.94-.31,4.82-1.76,4.63-3.81s-2.35-3.18-5.34-2.86-4.82,1.82-4.58,3.91,2.35,3.07,5.29,2.76m19,9.71c.25,4-4.08,6.54-11.29,7.2s-11.95-1.09-12.43-5,3.84-6.82,11.27-7.5,12.21,1.41,12.45,5.33m-18.71-6.71c-5.27.56-9.19-1.44-9.68-5.26s2.9-6.83,8.33-7.41,9.36,1.62,9.69,5.5-3,6.61-8.34,7.17m9.7-15.21c-8.95.72-13.42,1.19-22.34,2.37-.17-1.29-.26-1.94-.43-3.23,3.62-.48,5.43-.7,9.07-1.1-.18-1.61-.26-2.41-.44-4,1.76-.2,2.63-.29,4.39-.47l.4,4c3.63-.37,5.45-.53,9.09-.82.11,1.3.16,2,.26,3.25"/><path d="M198.58,8.45c.06,2.89,3.62,4.54,9,4.54s8.9-1.67,9-4.57-3.51-4.69-9-4.68-9.07,1.85-9,4.71m-4.44.12C194,3.77,199.43.45,207.57.44S221.12,3.72,221,8.53s-5.58,7.74-13.39,7.75-13.29-2.87-13.45-7.71M224.29,23c-3.3-.13-5-.17-8.26-.24-.09,4.91-.14,7.36-.22,12.26-1.65,0-2.48,0-4.13,0,0-4.91.06-7.36.09-12.27-3.33,0-5,0-8.34,0L203.58,35c-1.65,0-2.48,0-4.13.07-.11-4.91-.16-7.36-.27-12.26-3.24.07-4.86.12-8.09.26-.06-1.35-.09-2-.14-3.37,13.36-.55,20.06-.56,33.42-.05,0,1.36-.05,2-.08,3.38"/><path d="M252.32,5.52c-3.51-.36-5.27-.52-8.79-.8-.19,2.31-.28,3.47-.47,5.78,3.48.28,5.21.44,8.68.79.23-2.31.34-3.46.58-5.77M237.18,32.63c8.54.61,12.81,1,21.32,2.07-.15,1.21-.22,1.82-.38,3C248.08,36.49,243,36,233,35.41c.21-3.42.31-5.13.52-8.56,8.26.5,12.39.86,20.62,1.77.11-1,.17-1.49.28-2.49-8.32-.92-12.49-1.28-20.84-1.79.07-1.2.11-1.81.18-3,10,.61,15.07,1.06,25.08,2.28l-1,8.27c-8.16-1-12.25-1.38-20.43-2-.07,1.09-.1,1.63-.18,2.71m2-28.24L233.76,4c.07-1.25.11-1.88.18-3.13,11.41.67,17.11,1.18,28.46,2.59-.15,1.25-.23,1.87-.39,3.11-2.14-.26-3.21-.39-5.35-.63-.26,2.3-.38,3.46-.64,5.76,2,.23,3,.35,5.07.6-.15,1.23-.23,1.84-.38,3.07-10.88-1.34-16.34-1.84-27.27-2.48.07-1.24.11-1.86.18-3.09,2,.12,3.08.19,5.14.33.16-2.31.25-3.46.41-5.78m24.56,13.93c-.17,1.29-.26,1.94-.42,3.23-13.31-1.75-20-2.36-33.39-3,.07-1.3.1-2,.17-3.26,13.48.69,20.23,1.31,33.64,3.07"/><path d="M291.05,28.59c-1.54-.31-2.31-.46-3.85-.75l3.85-20.2,4,.79-1.65,8.21c1.65.33,2.48.5,4.12.85.74-3.54,1.12-5.31,1.87-8.86,1.65.35,2.47.52,4.12.89-2.09,9.47-3.14,14.21-5.22,23.68l-3.9-.84c1-4.65,1.47-7,2.44-11.61l-4.09-.84c-.69,3.48-1,5.21-1.73,8.68m-2.68,1.74c-.81,4.17,3.32,8.91,9.88,11.36-.9,1.1-1.35,1.65-2.24,2.76C290.84,42.37,287,39,285.42,35c-2.89,3.13-7.78,4.85-13.38,4.88-.42-1.35-.64-2-1.07-3.38,7,.12,12.56-2.78,13.33-7l.15-.79c1.63.3,2.45.46,4.08.78-.06.31-.1.46-.16.77m-2.48-4.19a83.61,83.61,0,0,1-13.57-1.27l-2.47-.37c.63-4.27.94-6.41,1.57-10.68,4,.59,6,.91,9.94,1.59l.7-4.07c-4-.69-6.07-1-10.12-1.61.19-1.27.28-1.91.47-3.18,5.77.85,8.65,1.32,14.39,2.37-.74,4.09-1.12,6.14-1.86,10.23-3.94-.72-5.91-1-9.86-1.67-.28,1.75-.42,2.63-.69,4.39a69.82,69.82,0,0,0,11.68,1c-.06,1.31-.11,2-.18,3.27"/><path d="M320.77,25c3.38.91,5.07,1.39,8.44,2.37.74-2.53,1.11-3.79,1.84-6.32-3.42-1-5.13-1.48-8.56-2.41-.68,2.54-1,3.81-1.72,6.36m-9.55,19.44C317.68,46.1,320.89,47,327.3,49c.58-1.9.86-2.85,1.44-4.75-6.48-2-9.74-2.88-16.27-4.58-.51,1.92-.76,2.89-1.25,4.81m-2-9c9.81,2.44,14.69,3.81,24.38,6.86-1.37,4.38-2.07,6.57-3.44,10.94-9.42-3-14.17-4.3-23.71-6.67,1.11-4.45,1.66-6.68,2.77-11.13m30.19,2.21c-.4,1.24-.6,1.86-1,3.1-12.86-4.18-19.35-6-32.42-9.12l.75-3.17c5.74,1.37,8.61,2.11,14.31,3.68.37-1.36.56-2,.94-3.41-4.48-1.24-6.72-1.82-11.23-2.93.32-1.28.47-1.92.79-3.2,2,.5,3,.75,5,1.27l1.65-6.38c-2.12-.55-3.17-.82-5.29-1.34.32-1.28.47-1.92.79-3.2,11.17,2.75,16.72,4.31,27.75,7.8l-1,3.14c-2.08-.66-3.12-1-5.2-1.61-.77,2.52-1.15,3.78-1.91,6.3,2,.6,2.95.9,4.92,1.52l-1,3.14c-4.42-1.4-6.64-2.07-11.1-3.34l-1,3.4c5.71,1.64,8.56,2.51,14.22,4.35"/></svg>